<?xml version="1.0" encoding="UTF-8" standalone="no"?>
<svg
   xmlns:dc="http://purl.org/dc/elements/1.1/"
   xmlns:cc="http://creativecommons.org/ns#"
   xmlns:rdf="http://www.w3.org/1999/02/22-rdf-syntax-ns#"
   xmlns:svg="http://www.w3.org/2000/svg"
   xmlns="http://www.w3.org/2000/svg"
   xmlns:sodipodi="http://sodipodi.sourceforge.net/DTD/sodipodi-0.dtd"
   xmlns:inkscape="http://www.inkscape.org/namespaces/inkscape"
   inkscape:version="1.0 (4035a4fb49, 2020-05-01)"
   sodipodi:docname="battery.svg"
   version="1.1"
   width="512"
   viewBox="0 0 512 512"
   height="512"
   enable-background="new 0 0 512 512"
   id="Layer_1">
  <metadata
     id="metadata13">
    <rdf:RDF>
      <cc:Work
         rdf:about="">
        <dc:format>image/svg+xml</dc:format>
        <dc:type
           rdf:resource="http://purl.org/dc/dcmitype/StillImage" />
        <dc:title></dc:title>
      </cc:Work>
    </rdf:RDF>
  </metadata>
  <defs
     id="defs11" />
  <sodipodi:namedview
     inkscape:current-layer="Layer_1"
     inkscape:window-maximized="1"
     inkscape:window-y="-9"
     inkscape:window-x="-9"
     inkscape:cy="326.63113"
     inkscape:cx="187.65153"
     inkscape:zoom="1.4712923"
     showgrid="false"
     id="namedview9"
     inkscape:window-height="1271"
     inkscape:window-width="2400"
     inkscape:pageshadow="2"
     inkscape:pageopacity="0"
     guidetolerance="10"
     gridtolerance="10"
     objecttolerance="10"
     borderopacity="1"
     bordercolor="#666666"
     pagecolor="#ffffff" />
  <g
     style="display:inline"
     id="g6">
    <path
       style="display:none"
       id="path2"
       d="M 50.799631,343.31903 H 396.79963 c 1.657,0 3,-1.343 3,-3 v -170 c 0,-1.657 -1.343,-3 -3,-3 H 50.799631 c -1.657,0 -3,1.343 -3,3 v 170 c 0,1.657 1.343,3 3,3 z" />
    <path
       style="display:inline"
       id="path4"
       d="m 448,352 v -40 h 40 c 13.23,0 24,-10.77 24,-24 v -64 c 0,-13.23 -10.77,-24 -24,-24 h -40 v -40 c 0,-22.06 -17.94,-40 -40,-40 H 40 C 17.94,120 0,137.94 0,160 v 192 c 0,22.06 17.94,40 40,40 h 368 c 22.06,0 40,-17.94 40,-40 z m -400,8 c -8.82,0 -16,-7.18 -16,-16 V 168 c 0,-8.82 7.18,-16 16,-16 h 352 c 8.82,0 16,7.18 16,16 v 176 c 0,8.82 -7.18,16 -16,16 z" />
  </g>
</svg>
